<?xml version="1.0" encoding="UTF-8"?>
<svg viewBox="0 0 36 46" version="1.1" xmlns="http://www.w3.org/2000/svg" xmlns:xlink="http://www.w3.org/1999/xlink">
    <!-- Generator: Sketch 54.1 (76490) - https://sketchapp.com -->
    <title>Group 2</title>
    <desc>Created with Sketch.</desc>
    <g id="Page-1" stroke="none" stroke-width="1" fill="none" fill-rule="evenodd">
        <g id="iPhone-XS" transform="translate(-69.000000, -595.000000)" fill="#FE7059" fill-rule="nonzero">
            <g id="Group-2" transform="translate(69.000000, 595.000000)">
                <path d="M31.757815,22.0177329 C27.5185338,24.0107253 23.1639986,25.7054771 18.74962,27.2376878 C17.9694386,24.7056257 17.5261537,22.5679867 16.8789577,19.5274245 C16.6100316,18.2643758 16.0197239,17.1295706 15.1848707,16.2810763 C17.628848,12.6216649 20.0728253,8.96299919 22.5168027,5.30358785 C24.8078467,1.87456732 19.7920783,-2.12931183 17.4840416,1.32505914 C14.1409348,6.33177208 10.7956115,11.3392306 7.45176582,16.3466892 C7.31730274,16.5487471 7.20943675,16.7515507 7.12373501,16.9558455 C6.25341901,18.0675371 5.7894475,19.4782148 6.09309765,20.9097693 C6.87327905,24.5602335 7.66675899,28.2256096 8.80452353,31.7836192 C9.22342775,33.0928951 10.204565,34.0577032 11.3918297,34.6213778 C11.4989568,34.7153236 11.6119945,34.8070326 11.7390695,34.8950135 C17.686475,38.9831456 23.8688216,42.6850562 30.4279603,45.6920664 C34.1811057,47.4106775 36.6435532,41.4525772 32.889669,39.7347118 C28.7634255,37.8468492 24.8115408,35.6674565 20.9771265,33.2807866 C25.4373113,31.7351551 29.8354362,30.0284736 34.118307,28.01535 C37.8448553,26.2624413 35.496923,20.2588594 31.757815,22.0177329 Z" id="Path"></path>
                <path d="M9.82877085,11.8901187 C11.703014,9.49999263 11.2828606,6.04227186 8.89052784,4.16949552 C6.49744748,2.29746681 3.04276945,2.71762661 1.17076907,5.10924796 C-0.703474126,7.50012169 -0.281825477,10.9563472 2.10901207,12.8298712 C4.50059723,14.7033951 7.95751807,14.2817401 9.82877085,11.8901187 Z" id="Path"></path>
            </g>
        </g>
    </g>
</svg>