<?xml version="1.0" encoding="UTF-8"?>
<svg viewBox="0 0 148 151" version="1.1" xmlns="http://www.w3.org/2000/svg" xmlns:xlink="http://www.w3.org/1999/xlink">
    <!-- Generator: Sketch 54.1 (76490) - https://sketchapp.com -->
    <title>positive-vote</title>
    <desc>Created with Sketch.</desc>
    <g id="Page-1" stroke="none" stroke-width="1" fill="none" fill-rule="evenodd" opacity="0.801223028">
        <g id="iPhone-XS" transform="translate(-115.000000, -460.000000)" fill-rule="nonzero">
            <g id="positive-vote" transform="translate(115.000000, 460.000000)">
                <path d="M135,82.5545083 C135,120.10949 104.776562,150.55336 67.4988598,150.55336 C58.3538531,150.55336 49.6363428,148.721605 41.6849066,145.401479 C19.9521205,136.332286 3.94436844,116.155427 0.634974847,91.9004743 C0.214318285,88.8456365 0,85.725338 0,82.5545083 C0,44.9972301 30.2200181,14.5533597 67.4988598,14.5533597 C104.776562,14.5533597 135,44.9972301 135,82.5545083 Z" id="Path" fill="#471D53"></path>
                <path d="M67.4923479,14.5533597 C63.9226924,14.5533597 60.4191625,14.8347265 57,15.3721942 C89.3001971,20.4494264 114.016444,48.5918323 114.016444,82.5545083 C114.016444,116.51259 89.3024774,144.653848 57.0045604,149.733377 C60.4225826,150.270844 63.9238324,150.55336 67.4912079,150.55336 C104.773646,150.55336 135,120.10949 135,82.5545083 C135,44.9972301 104.773646,14.5533597 67.4923479,14.5533597 L67.4923479,14.5533597 Z" id="Path" fill="#4B2057"></path>
                <path d="M144.092319,77.5478366 L105.619258,103.091777 C102.878091,104.912677 99.5577399,105.634876 96.3124893,105.114619 C93.0592734,104.595503 89.7309572,105.307434 86.9829627,107.131756 L81.834029,110.55336 L53,67.9367707 L60.0742366,37.2940825 C60.6238356,34.9084297 60.8957904,32.4908312 60.8957904,30.0823601 C60.8957904,23.8518247 59.0785867,17.7022944 55.5932421,12.4232817 C54.736414,11.1249206 54.3267751,9.65656353 54.3267751,8.20646081 C54.3267751,5.72839397 55.5261067,3.29710456 57.7427085,1.82532468 C60.7296589,-0.158726148 64.6883641,0.20978939 67.2599862,2.71067453 L71.8433907,7.1613829 C77.0844933,12.2601309 81.1274019,18.4678482 83.6660254,25.3338731 L86.1511683,32.0424518 L111.74336,15.0884586 C115.830646,12.3753632 121.359634,13.5619145 123.969944,17.75934 C126.486948,21.8027418 125.19431,27.1456457 121.228777,29.7777361 C121.180986,29.8096817 121.177572,29.8610228 121.193503,29.8998138 C121.216261,29.9420278 121.264052,29.9705506 121.317532,29.9477323 C122.329113,29.5575396 123.387347,29.3681476 124.436477,29.3681476 C126.111446,29.3681476 127.771621,29.8518955 129.191703,30.7726138 C130.170285,31.4069624 131.037354,32.2500984 131.721223,33.2860487 C133.042309,35.2872134 133.436017,37.6340749 133.00362,39.8155039 C132.32544,43.2519392 129.834608,45.0226389 129.345317,45.355786 C129.262252,45.4139727 129.239494,45.529205 129.297526,45.6159145 C129.297526,45.6181965 129.30094,45.6216193 129.303215,45.6216193 C129.357834,45.6992012 129.469347,45.7208787 129.548999,45.6706784 C130.246523,45.5006822 130.956564,45.4196772 131.666605,45.4196772 C133.399605,45.4196772 135.123502,45.9136935 136.589099,46.8503844 C137.580198,47.4858739 138.45637,48.3255871 139.13455,49.3546924 C141.794927,53.3821213 140.695729,58.8105939 136.674441,61.4791932 C136.575444,61.5465073 136.476448,61.6138213 136.377452,61.6777126 C136.320558,61.7233491 136.30349,61.7963677 136.333075,61.8477088 C136.338764,61.8602589 136.352419,61.8739499 136.364936,61.8796544 C136.409313,61.9150228 136.479862,61.9184454 136.537894,61.8739499 C139.035554,61.0205457 141.753963,61.4084567 143.94098,62.8288955 C144.948009,63.476935 145.841249,64.3497348 146.547877,65.4199129 C149.209392,69.4507647 148.109056,74.8792369 144.092319,77.5478366 L144.092319,77.5478366 Z" id="Path" fill="#FDD7BD"></path>
                <path d="M82.129542,118.182531 L65.799683,128.973972 L42.2241934,144.55336 C20.3991491,135.530407 4.32344234,115.462393 1,91.3318787 L28.3591539,73.2517011 L45.0141447,62.244339 C46.9317354,60.9762359 49.5190516,61.5028984 50.7898133,63.4199046 L83.3075723,112.415518 C84.5783337,114.332524 84.050567,116.909858 82.129542,118.182531 L82.129542,118.182531 Z" id="Path" fill="#8C3EA1"></path>
                <path d="M82.1174684,118.66918 L65.6822025,129.55336 L28,73.3522323 L44.7624964,62.250277 C46.692465,60.9712763 49.2964818,61.5024647 50.5754462,63.435945 L83.3031027,112.851456 C84.5820668,114.786088 84.0508934,117.385571 82.1174684,118.66918 L82.1174684,118.66918 Z" id="Path" fill="#AD48C9"></path>
                <g id="Group" transform="translate(111.000000, 28.553360)" fill="#FAC5AA">
                    <path d="M18.1814351,1.58288058 L5.45929276,8.40013594 C3.65460526,9.36480986 1.41683792,8.86096 0.203536184,7.21580609 L10.2333469,0.717844058 C10.2559623,0.759737391 10.3034539,0.788043478 10.3565996,0.765398551 C11.3618421,0.378170435 12.4134456,0.190217391 13.4560033,0.190217391 C15.1216077,0.190217391 16.7702509,0.670289855 18.1814351,1.58288058 L18.1814351,1.58288058 Z" id="Path"></path>
                    <path d="M25.5324836,17.5396287 L13.0873768,24.2028986 C11.282689,25.1709693 9.04492195,24.6682519 7.83048924,23.023098 L17.8603002,16.5240035 L18.2933798,16.3201994 C18.3476561,16.3971919 18.4584704,16.4187046 18.5376232,16.3688858 C19.2307772,16.2001812 19.9363693,16.1197916 20.6419614,16.1197916 C22.3641035,16.1197916 24.0771998,16.6100545 25.5324836,17.5396287 Z" id="Path"></path>
                    <path d="M32.8394324,33.3967391 L21.8778783,39.2685687 C20.0754522,40.2321104 17.8388158,39.729393 16.620991,38.0842391 L25.3097246,32.4547101 C25.3549548,32.4898099 25.4250616,32.4932064 25.4815996,32.4479165 C27.9636101,31.6021287 30.6649877,31.9870925 32.8394324,33.3967391 L32.8394324,33.3967391 Z" id="Path"></path>
                </g>
            </g>
        </g>
    </g>
</svg>