<?xml version="1.0" encoding="UTF-8"?>
<svg viewBox="0 0 216 206" version="1.1" xmlns="http://www.w3.org/2000/svg" xmlns:xlink="http://www.w3.org/1999/xlink">
    <!-- Generator: Sketch 54.1 (76490) - https://sketchapp.com -->
    <title>cardiogram</title>
    <desc>Created with Sketch.</desc>
    <g id="Page-1" stroke="none" stroke-width="1" fill="none" fill-rule="evenodd">
        <g id="iPhone-XS" transform="translate(-80.000000, -107.000000)" fill-rule="nonzero">
            <g id="cardiogram" transform="translate(80.000000, 107.000000)">
                <path d="M91.8047197,70.1603632 C92.2044632,69.0418992 93.3253186,68.3531275 94.4999977,68.5076272 C95.6737326,68.6611791 96.5827554,69.6147171 96.6837929,70.7985828 L100.707667,117.990499 L108.242673,90.7268318 C108.550822,89.6124751 109.568437,88.8459797 110.72486,88.875679 C111.876562,88.901271 112.864274,89.7078921 113.123006,90.8348868 L117.319053,109.10724 L124.483273,78.8922816 C124.763723,77.7099955 125.843975,76.9002149 127.051389,76.9526627 C128.260692,77.0098497 129.258162,77.922946 129.426557,79.1264007 L134.773362,117.388613 L137.170564,109.612445 C137.496968,108.554011 138.472405,107.832065 139.576264,107.832065 L166.515509,107.832065 C170.469506,101.856181 173.283134,95.906521 174.219226,90.1837132 C176.27397,77.5175818 174.269587,67.0716331 168.248255,59.1409647 C162.168063,51.1347842 152.932101,46.5667748 139.986394,45.1750138 C138.742468,45.0495815 137.605875,44.9904988 136.479354,44.9904988 C127.31736,44.9904988 118.079824,48.4106608 110.980759,54.1957107 C103.891765,48.4106608 94.6460457,44.9904988 85.5016785,44.9904988 C84.3638262,44.9904988 83.2373051,45.0495815 81.9848806,45.1750138 C69.0394884,46.5667748 59.793769,51.1347842 53.7214459,59.1409647 C47.7016875,67.0719491 45.6954161,77.5175818 47.7507898,90.1837132 C48.7016756,95.9968827 51.5873825,102.042276 55.6370668,108.110417 L78.2395679,108.110417 L91.8047197,70.1603632 Z" id="Path" fill="#D93E3E"></path>
                <path d="M136.535825,130.190196 C136.18854,131.327829 135.106254,132.069515 133.939028,131.972593 C132.768667,131.876943 131.820217,130.97065 131.657232,129.791706 L126.619415,93.3782327 L120.083699,121.219101 C119.815087,122.364678 118.805204,123.172461 117.64456,123.172779 C117.641425,123.172779 117.638604,123.172779 117.635784,123.172779 C116.471065,123.168648 115.462749,122.351967 115.201032,121.201623 L110.837097,102.00772 L102.248392,133.394635 C101.944675,134.50335 100.949523,135.257112 99.8340135,135.257429 C99.756282,135.257429 99.6785505,135.253616 99.6001921,135.246307 C98.3919059,135.132544 97.4375009,134.157612 97.3340678,132.931637 L93.1177601,82.9904988 L82.892932,111.882565 C82.5356177,112.892453 81.5912426,113.566135 80.5327776,113.566135 L59.8721805,113.566135 C68.2098254,124.580203 79.6360443,135.480189 89.648678,145.029952 C89.648678,145.029952 98.181592,153.714732 100.742344,155.940425 C102.674975,157.618275 106.849282,160.990499 111.380277,160.990499 C115.90469,160.990499 120.088714,157.618275 122.009748,155.940425 C124.570814,153.714414 133.103414,145.029952 133.103414,145.029952 C143.200048,135.400428 154.734715,124.39494 163.090226,113.286176 L141.695881,113.286176 L136.535825,130.190196 Z" id="Path" fill="#D93E3E"></path>
                <path d="M171.507536,108.190197 L166.068512,108.190197 L139.322762,108.190197 C138.226832,108.190197 137.258714,108.909459 136.934341,109.963957 L134.554358,117.711212 L129.245958,79.5912679 C129.078771,78.392288 128.088466,77.4825868 126.887849,77.4256124 C125.689108,77.3733597 124.616303,78.1801293 124.33818,79.3580193 L117.225417,109.460631 L113.059509,91.2562188 C112.802636,90.1334146 111.822017,89.3294779 110.678588,89.3042959 C109.530471,89.274707 108.520166,90.0383524 108.21423,91.1485656 L100.733345,118.310859 L96.7383732,71.294415 C96.6383739,70.1149512 95.7358802,69.1649587 94.5702634,69.0119778 C93.4040215,68.8580525 92.2912168,69.5442632 91.8943446,70.6585685 L78.4266266,108.467514 L55.9864714,108.467514 L45.4999825,108.467514 C44.1193672,108.467514 43,109.59504 43,110.985718 C43,112.376397 44.1193672,113.503922 45.4999825,113.503922 L59.5867587,113.503922 L80.1856767,113.503922 C81.2406693,113.503922 82.1825377,112.836598 82.5387852,111.836242 L92.7330887,83.2168523 L96.9368093,132.686657 C97.0399335,133.901061 97.9914894,134.866477 99.1961684,134.979482 C99.2742929,134.986722 99.3517923,134.990499 99.4292918,134.990499 C100.541784,134.990499 101.533652,134.243537 101.836462,133.145285 L110.399527,102.054593 L114.750434,121.067348 C115.01137,122.207151 116.016675,123.015809 117.177917,123.019901 C117.181042,123.019901 117.183855,123.019901 117.186667,123.019901 C118.343847,123.019901 119.350715,122.219427 119.618525,121.084661 L126.13473,93.506549 L131.157507,129.57636 C131.320318,130.744177 132.265624,131.641917 133.432491,131.736664 C134.596545,131.832671 135.675288,131.097985 136.021535,129.971089 L141.165874,113.226605 L162.49635,113.226605 L171.507536,113.226605 C172.888152,113.226605 174.007519,112.099079 174.007519,110.708401 C174.007519,109.317723 172.888152,108.190197 171.507536,108.190197 Z" id="Path"></path>
                <g id="hearts" opacity="0.0359002976">
                    <path d="M107.918518,188 C156.146488,153.160146 180.274309,121.292353 191.620258,96.9844724 C204.875647,68.5830554 193.345212,33.3755553 164.423804,21.5614556 C130.429004,7.68050631 107.918518,39.7058613 107.918518,39.7058613 C107.918518,39.7058613 85.5679213,7.59709086 51.5761964,21.4842191 C22.6547884,33.2983188 11.1243525,68.5058189 24.3797416,96.9072359 C35.7256905,121.212027 59.6905484,153.163235 107.918518,188 Z" id="Path" fill="#FFFFFF"></path>
                    <path d="M107.90122,206 C166.36753,163.782294 195.617459,125.166028 209.372045,95.710596 C225.441427,61.2947612 211.463189,18.6315552 176.402041,4.31564618 C135.190468,-12.5047982 107.90122,26.3023967 107.90122,26.3023967 C107.90122,26.3023967 80.8058041,-12.6058781 39.5979587,4.22205368 C4.53681052,18.5379627 -9.44142738,61.2011687 6.62795492,95.6170035 C20.382541,125.068692 49.4349107,163.786038 107.90122,206 Z" id="Path" fill="#D93E3E"></path>
                </g>
            </g>
        </g>
    </g>
</svg>