<?xml version="1.0" encoding="UTF-8"?>
<svg viewBox="0 0 119 120" version="1.1" xmlns="http://www.w3.org/2000/svg" xmlns:xlink="http://www.w3.org/1999/xlink">
    <!-- Generator: Sketch 54.1 (76490) - https://sketchapp.com -->
    <title>triangle</title>
    <desc>Created with Sketch.</desc>
    <g id="Page-1" stroke="none" stroke-width="1" fill="none" fill-rule="evenodd">
        <g id="iPhone-XS" transform="translate(-127.000000, -443.000000)" fill-rule="nonzero">
            <g id="triangle" transform="translate(127.000000, 443.000000)">
                <path d="M100.440714,119.729572 L18.5592855,119.729572 C12.1278292,119.728666 6.15498572,116.399044 2.77248928,110.927915 C-0.609100635,105.457692 -0.917259707,98.6262578 1.95768123,92.8732798 L42.8947702,10.9957553 C46.0370841,4.70445535 52.4667278,0.729571984 59.5,0.729571984 C66.5332724,0.729571984 72.9629159,4.70445535 76.1052298,10.9957553 L117.042319,92.8732798 C119.917259,98.6262578 119.609101,105.457692 116.227511,110.927915 C112.845921,116.399044 106.872171,119.728666 100.440714,119.729572 Z" id="Path" fill="#FE7059"></path>
                <g id="Group" transform="translate(55.000000, 30.729572)" fill="#FFFFFF">
                    <path d="M4.09659103,0.047091263 C6.23863636,0.047091263 7.97537891,1.707964 7.97537891,3.75643382 L7.97537891,48.2685446 C7.97537891,50.3170144 6.23863636,51.9778871 4.09659103,51.9778871 C1.95454545,51.9778871 0.217803152,50.3170144 0.217803152,48.2685446 L0.217803152,3.75643382 C0.217803152,1.707964 1.95454545,0.047091263 4.09659103,0.047091263 Z" id="Path"></path>
                    <polygon id="Path" points="0.217803152 59.3965722 7.97537891 59.3965722 7.97537891 66.8152574 0.217803152 66.8152574"></polygon>
                </g>
            </g>
        </g>
    </g>
</svg>